STARTFONT 2.1
FONT -FontForge-Digital7-Book-I-Normal--38-360-75-75-P-161-ISO10646-1
SIZE 36 75 75
FONTBOUNDINGBOX 19 34 0 -4
COMMENT "Generated by fontforge, http://fontforge.sourceforge.net"
COMMENT "Created by Sizenko Alexander. (c) 2008 Style-7. All rights reserved. http://www.styleseven.com"
STARTPROPERTIES 32
FOUNDRY "FontForge"
FAMILY_NAME "Digital7"
WEIGHT_NAME "Book"
SLANT "I"
SETWIDTH_NAME "Normal"
ADD_STYLE_NAME ""
PIXEL_SIZE 38
POINT_SIZE 360
RESOLUTION_X 75
RESOLUTION_Y 75
SPACING "P"
AVERAGE_WIDTH 161
CHARSET_REGISTRY "ISO10646"
CHARSET_ENCODING "1"
FONTNAME_REGISTRY ""
CHARSET_COLLECTIONS "ISO10646-1"
FONT_NAME "Digital-7"
FACE_NAME "Digital-7"
COPYRIGHT "Created by Sizenko Alexander. (c) 2008 Style-7. All rights reserved. http://www.styleseven.com"
FONT_VERSION "001.000"
FONT_ASCENT 30
FONT_DESCENT 8
UNDERLINE_POSITION 0
UNDERLINE_THICKNESS 2
X_HEIGHT 24
CAP_HEIGHT 24
DEFAULT_CHAR 72
RAW_ASCENT 805
RAW_DESCENT 195
NORM_SPACE 11
AVG_LOWERCASE_WIDTH 175
AVG_UPPERCASE_WIDTH 175
ENDPROPERTIES
CHARS 107
STARTCHAR nonmarkingreturn
ENCODING 13
SWIDTH 454 0
DWIDTH 18 0
BBX 1 1 0 0
BITMAP
00
ENDCHAR
STARTCHAR space
ENCODING 32
SWIDTH 272 0
DWIDTH 11 0
BBX 1 1 0 0
BITMAP
00
ENDCHAR
STARTCHAR exclam
ENCODING 33
SWIDTH 163 0
DWIDTH 7 0
BBX 3 25 1 0
BITMAP
40
E0
E0
E0
E0
E0
E0
E0
E0
E0
E0
60
20
60
E0
E0
E0
E0
E0
00
00
00
E0
E0
E0
ENDCHAR
STARTCHAR quotedbl
ENCODING 34
SWIDTH 310 0
DWIDTH 12 0
BBX 8 7 2 18
BITMAP
E7
E7
E7
E7
E7
E7
43
ENDCHAR
STARTCHAR numbersign
ENCODING 35
SWIDTH 490 0
DWIDTH 19 0
BBX 15 17 2 4
BITMAP
0C20
1C70
1C70
0C70
638C
E79E
63AC
0C70
1C70
6F7C
E79E
E39C
0020
1C70
1C70
0C70
0820
ENDCHAR
STARTCHAR dollar
ENCODING 36
SWIDTH 472 0
DWIDTH 18 0
BBX 15 33 1 -3
BITMAP
0100
0180
0380
0000
3FF8
7FFE
7FF8
E000
E380
E380
E380
E380
E380
E380
E000
DFF0
3FF8
3FF0
0006
018E
038E
038E
038E
038E
038E
000E
3FEE
FFFE
7FF4
0000
0380
0380
0180
ENDCHAR
STARTCHAR percent
ENCODING 37
SWIDTH 545 0
DWIDTH 21 0
BBX 17 25 2 1
BITMAP
7E0600
FB0F00
3B0E00
E71E00
E71C00
ED3C00
DF3800
DF7800
007000
007000
006000
006000
000000
010000
030000
030000
070000
077D80
0F7D80
0E5F80
1E7380
1C7180
3C7E80
386F80
386F80
ENDCHAR
STARTCHAR ampersand
ENCODING 38
SWIDTH 509 0
DWIDTH 20 0
BBX 16 26 1 -2
BITMAP
3FF0
7FD8
1FD8
7038
7038
7038
7038
7038
2008
0000
3FF0
7FF8
FFF6
E00E
E00E
E00E
E00E
E00E
E00E
E00E
C004
7FFE
FFFF
3FFF
000E
0006
ENDCHAR
STARTCHAR quotesingle
ENCODING 39
SWIDTH 163 0
DWIDTH 7 0
BBX 3 7 1 18
BITMAP
E0
E0
E0
E0
E0
E0
40
ENDCHAR
STARTCHAR parenleft
ENCODING 40
SWIDTH 318 0
DWIDTH 13 0
BBX 9 25 1 1
BITMAP
1F00
3F80
5F00
E000
E000
E000
E000
E000
E000
E000
E000
C000
0000
8000
C000
E000
E000
E000
E000
E000
E000
E000
7F00
3F80
1F00
ENDCHAR
STARTCHAR parenright
ENCODING 41
SWIDTH 318 0
DWIDTH 13 0
BBX 8 25 2 1
BITMAP
78
FC
7A
07
07
07
07
07
07
07
03
01
00
01
03
07
07
07
07
07
07
07
7E
FC
78
ENDCHAR
STARTCHAR asterisk
ENCODING 42
SWIDTH 390 0
DWIDTH 15 0
BBX 12 13 1 7
BITMAP
0600
0E00
0E00
EE70
FFE0
7FE0
3F80
3FC0
FFE0
FFF0
0E00
0E00
0600
ENDCHAR
STARTCHAR plus
ENCODING 43
SWIDTH 400 0
DWIDTH 16 0
BBX 12 12 1 6
BITMAP
0600
0E00
0E00
0E00
7FC0
FFF0
FFF0
0F00
0E00
0E00
0600
0600
ENDCHAR
STARTCHAR comma
ENCODING 44
SWIDTH 163 0
DWIDTH 7 0
BBX 3 7 1 -4
BITMAP
E0
E0
E0
E0
E0
E0
40
ENDCHAR
STARTCHAR hyphen
ENCODING 45
SWIDTH 400 0
DWIDTH 16 0
BBX 11 3 2 11
BITMAP
7FE0
FFE0
7FE0
ENDCHAR
STARTCHAR period
ENCODING 46
SWIDTH 163 0
DWIDTH 7 0
BBX 3 3 1 0
BITMAP
E0
E0
E0
ENDCHAR
STARTCHAR slash
ENCODING 47
SWIDTH 472 0
DWIDTH 18 0
BBX 14 25 2 0
BITMAP
0018
001C
003C
0038
0078
0070
00F0
00E0
01E0
01C0
01C0
0180
0400
0400
0C00
0C00
1C00
1C00
3C00
3800
7800
7000
F000
E000
4000
ENDCHAR
STARTCHAR zero
ENCODING 48
SWIDTH 472 0
DWIDTH 18 0
BBX 14 25 2 1
BITMAP
7FF8
FFEC
7FEC
E01C
E01C
E01C
E01C
E01C
E01C
E01C
E00C
C004
0000
8004
C00C
E01C
E01C
E01C
E01C
E01C
E01C
E01C
7FFC
FFEC
7FFC
ENDCHAR
STARTCHAR one
ENCODING 49
SWIDTH 163 0
DWIDTH 7 0
BBX 3 25 1 0
BITMAP
40
E0
E0
E0
E0
E0
E0
E0
E0
E0
E0
60
20
60
E0
E0
E0
E0
E0
E0
E0
E0
E0
60
40
ENDCHAR
STARTCHAR two
ENCODING 50
SWIDTH 472 0
DWIDTH 18 0
BBX 14 25 2 1
BITMAP
7FF8
FFEC
3FEC
001C
001C
001C
001C
001C
001C
001C
000C
1FE4
3FF0
BFF0
C000
E000
E000
E000
E000
E000
E000
E000
7FF0
FFF0
7FF8
ENDCHAR
STARTCHAR three
ENCODING 51
SWIDTH 472 0
DWIDTH 18 0
BBX 15 25 1 1
BITMAP
7FF4
FFFE
3FEE
000E
000E
000E
000E
000E
000E
000E
000E
1FF6
3FF8
3FF6
000E
000E
000E
000E
000E
000E
000E
000E
3FEE
FFFE
7FF4
ENDCHAR
STARTCHAR four
ENCODING 52
SWIDTH 472 0
DWIDTH 18 0
BBX 14 24 2 1
BITMAP
000C
800C
E01C
E01C
E01C
E01C
E01C
E01C
E01C
E01C
E00C
DFF4
3FF4
1FEC
000C
001C
001C
001C
001C
001C
001C
001C
001C
000C
ENDCHAR
STARTCHAR five
ENCODING 53
SWIDTH 472 0
DWIDTH 18 0
BBX 14 25 2 1
BITMAP
7FF8
FFF0
7FF0
E000
E000
E000
E000
E000
E000
E000
E000
DFE0
3FF0
3FF4
000C
001C
001C
001C
001C
001C
001C
001C
3FFC
FFEC
7FFC
ENDCHAR
STARTCHAR six
ENCODING 54
SWIDTH 472 0
DWIDTH 18 0
BBX 14 25 2 1
BITMAP
7FF8
FFF0
7FF0
E000
E000
E000
E000
E000
E000
E000
E000
DFE0
3FF0
BFF4
C00C
E01C
E01C
E01C
E01C
E01C
E01C
E01C
7FFC
FFEC
7FFC
ENDCHAR
STARTCHAR seven
ENCODING 55
SWIDTH 472 0
DWIDTH 18 0
BBX 14 25 2 1
BITMAP
7FF8
FFEC
7FEC
E01C
E01C
E01C
E01C
E01C
E01C
E01C
E00C
C004
0000
0004
000C
001C
001C
001C
001C
001C
001C
001C
001C
000C
000C
ENDCHAR
STARTCHAR eight
ENCODING 56
SWIDTH 472 0
DWIDTH 18 0
BBX 14 25 2 1
BITMAP
7FF8
FFEC
7FEC
E01C
E01C
E01C
E01C
E01C
E01C
E01C
E00C
DFE4
3FF0
BFF4
C00C
E01C
E01C
E01C
E01C
E01C
E01C
E01C
7FFC
FFEC
7FFC
ENDCHAR
STARTCHAR nine
ENCODING 57
SWIDTH 472 0
DWIDTH 18 0
BBX 14 25 2 1
BITMAP
7FF8
FFEC
7FEC
E01C
E01C
E01C
E01C
E01C
E01C
E01C
E00C
DFE4
3FF0
3FF4
000C
001C
001C
001C
001C
001C
001C
001C
3FFC
FFEC
7FFC
ENDCHAR
STARTCHAR colon
ENCODING 58
SWIDTH 163 0
DWIDTH 7 0
BBX 3 14 1 5
BITMAP
E0
E0
E0
00
00
00
00
00
00
00
00
E0
E0
E0
ENDCHAR
STARTCHAR semicolon
ENCODING 59
SWIDTH 163 0
DWIDTH 7 0
BBX 3 23 1 -3
BITMAP
E0
E0
E0
00
00
00
00
00
00
00
00
00
00
00
00
00
E0
E0
E0
E0
E0
E0
40
ENDCHAR
STARTCHAR less
ENCODING 60
SWIDTH 336 0
DWIDTH 13 0
BBX 9 14 2 6
BITMAP
0300
0780
0F00
1E00
3C00
7800
F000
F000
7800
3C00
1E00
0F00
0780
0380
ENDCHAR
STARTCHAR equal
ENCODING 61
SWIDTH 400 0
DWIDTH 16 0
BBX 11 8 2 9
BITMAP
7FE0
FFE0
7FE0
0000
0000
7FC0
FFE0
FFE0
ENDCHAR
STARTCHAR greater
ENCODING 62
SWIDTH 336 0
DWIDTH 13 0
BBX 9 14 2 6
BITMAP
E000
F000
7800
3C00
1E00
0F00
0780
0700
0F00
1E00
3C00
7800
F000
E000
ENDCHAR
STARTCHAR question
ENCODING 63
SWIDTH 472 0
DWIDTH 18 0
BBX 14 25 2 1
BITMAP
7FF8
FFEC
3FEC
001C
001C
001C
001C
001C
001C
001C
000C
1FE4
3FF0
BFF0
C000
E000
E000
E000
E000
E000
0000
0000
E000
E000
E000
ENDCHAR
STARTCHAR at
ENCODING 64
SWIDTH 472 0
DWIDTH 18 0
BBX 15 25 1 1
BITMAP
7FF4
FFFE
7FEE
E00E
E00E
E00E
E1FE
E3FE
E0EE
E38E
E38E
C306
0200
8206
C30E
E38E
E30E
E1FE
E3FE
E1F0
E000
E000
7FE0
FFF0
7FF0
ENDCHAR
STARTCHAR A
ENCODING 65
SWIDTH 472 0
DWIDTH 18 0
BBX 14 25 2 1
BITMAP
7FF8
FFEC
7FEC
E01C
E01C
E01C
E01C
E01C
E01C
E01C
E00C
DFE4
3FF0
BFF4
C00C
E01C
E01C
E01C
E01C
E01C
E01C
E01C
E01C
E00C
400C
ENDCHAR
STARTCHAR B
ENCODING 66
SWIDTH 472 0
DWIDTH 18 0
BBX 14 25 2 1
BITMAP
FFF0
FFF0
7FF8
E01C
E01C
E01C
E01C
E01C
E01C
E01C
E00C
DFE4
3FF0
BFF4
C00C
E01C
E01C
E01C
E01C
E01C
E01C
E01C
7FF8
FFF0
FFF0
ENDCHAR
STARTCHAR C
ENCODING 67
SWIDTH 436 0
DWIDTH 17 0
BBX 13 25 1 1
BITMAP
7FF8
7FF8
7FF8
E000
E000
E000
E000
E000
E000
E000
E000
C000
0000
8000
C000
E000
E000
E000
E000
E000
E000
E000
7FF0
FFF8
7FF8
ENDCHAR
STARTCHAR D
ENCODING 68
SWIDTH 472 0
DWIDTH 18 0
BBX 14 25 2 1
BITMAP
FFF0
FFF0
7FF8
E01C
E01C
E01C
E01C
E01C
E01C
E01C
E00C
C004
0000
8004
C00C
E01C
E01C
E01C
E01C
E01C
E01C
E01C
7FF8
FFF0
FFF0
ENDCHAR
STARTCHAR E
ENCODING 69
SWIDTH 436 0
DWIDTH 17 0
BBX 13 25 1 1
BITMAP
7FF8
7FF8
7FF8
E000
E000
E000
E000
E000
E000
E000
E000
DFF0
3FF8
BFF8
C000
E000
E000
E000
E000
E000
E000
E000
7FF0
FFF8
7FF8
ENDCHAR
STARTCHAR F
ENCODING 70
SWIDTH 436 0
DWIDTH 17 0
BBX 13 25 1 1
BITMAP
7FF8
7FF8
7FF8
E000
E000
E000
E000
E000
E000
E000
E000
DFF0
3FF8
BFF8
C000
E000
E000
E000
E000
E000
E000
E000
E000
E000
4000
ENDCHAR
STARTCHAR G
ENCODING 71
SWIDTH 472 0
DWIDTH 18 0
BBX 14 25 2 1
BITMAP
7FF8
FFF0
7FF0
E000
E000
E000
E000
E000
E000
E000
E000
C0E0
01F0
81F4
C00C
E01C
E01C
E01C
E01C
E01C
E01C
E01C
7FFC
FFEC
7FFC
ENDCHAR
STARTCHAR H
ENCODING 72
SWIDTH 472 0
DWIDTH 18 0
BBX 14 25 2 0
BITMAP
400C
C00C
E01C
E01C
E01C
E01C
E01C
E01C
E01C
E01C
E00C
DFF4
BFF4
DFEC
E00C
E01C
E01C
E01C
E01C
E01C
E01C
E01C
E01C
C00C
4000
ENDCHAR
STARTCHAR I
ENCODING 73
SWIDTH 163 0
DWIDTH 7 0
BBX 3 24 1 1
BITMAP
40
E0
E0
E0
E0
E0
E0
E0
E0
E0
E0
60
20
60
E0
E0
E0
E0
E0
E0
E0
E0
E0
40
ENDCHAR
STARTCHAR J
ENCODING 74
SWIDTH 472 0
DWIDTH 18 0
BBX 14 25 2 0
BITMAP
000C
000C
001C
001C
001C
001C
001C
001C
001C
001C
000C
0004
0004
C00C
E00C
E01C
E01C
E01C
E01C
E01C
E01C
C01C
7FEC
FFEC
3FE0
ENDCHAR
STARTCHAR K
ENCODING 75
SWIDTH 472 0
DWIDTH 18 0
BBX 14 25 2 0
BITMAP
4018
C03C
E078
E0F0
E1E0
E3C0
E780
EF00
FE00
FC00
F800
DFF0
BFF0
DFEC
E00C
E01C
E01C
E01C
E01C
E01C
E01C
E01C
E01C
C00C
4000
ENDCHAR
STARTCHAR L
ENCODING 76
SWIDTH 472 0
DWIDTH 18 0
BBX 14 25 1 0
BITMAP
4000
C000
E000
E000
E000
E000
E000
E000
E000
E000
E000
C000
8000
C000
E000
E000
E000
E000
E000
E000
E000
E000
FFFC
DFFC
1FFC
ENDCHAR
STARTCHAR M
ENCODING 77
SWIDTH 472 0
DWIDTH 18 0
BBX 15 25 2 1
BITMAP
7FF4
FFFE
7FEE
E00E
E38E
E38E
E38E
E38E
E38E
E38E
E38E
C386
0100
8006
C00E
E00E
E00E
E00E
E00E
E00E
E00E
E00E
E00E
E00E
4004
ENDCHAR
STARTCHAR N
ENCODING 78
SWIDTH 472 0
DWIDTH 18 0
BBX 14 25 2 0
BITMAP
400C
C00C
E01C
FC1C
FE1C
EF1C
E79C
E3DC
E1FC
E0FC
E00C
C004
8004
C00C
E00C
E01C
E01C
E01C
E01C
E01C
E01C
E01C
E01C
C00C
4000
ENDCHAR
STARTCHAR O
ENCODING 79
SWIDTH 472 0
DWIDTH 18 0
BBX 14 25 2 1
BITMAP
1FE0
3FF0
7FE8
E01C
E01C
E01C
E01C
E01C
E01C
E01C
E00C
C004
0000
8004
C00C
E01C
E01C
E01C
E01C
E01C
E01C
E01C
7FF8
3FF0
1FE0
ENDCHAR
STARTCHAR P
ENCODING 80
SWIDTH 472 0
DWIDTH 18 0
BBX 14 25 2 1
BITMAP
FFF0
FFF0
7FF8
E01C
E01C
E01C
E01C
E01C
E01C
E01C
E00C
DFE4
3FF0
BFF0
C000
E000
E000
E000
E000
E000
E000
E000
E000
E000
4000
ENDCHAR
STARTCHAR Q
ENCODING 81
SWIDTH 481 0
DWIDTH 19 0
BBX 15 26 2 0
BITMAP
7FF8
FFEC
7FEC
E01C
E01C
E01C
E01C
E01C
E01C
E01C
E00C
C004
0000
8004
C00C
E01C
E01C
E01C
E01C
E0DC
E0E4
E0F0
7FF8
FFFC
7FFE
0006
ENDCHAR
STARTCHAR R
ENCODING 82
SWIDTH 472 0
DWIDTH 18 0
BBX 14 25 2 1
BITMAP
7FF8
FFEC
7FEC
E01C
E01C
E01C
E01C
E01C
E01C
E01C
E00C
DFE4
3FF0
BFF0
D800
FC00
FE00
FF00
EF80
E7C0
E3E0
E1F0
E0F8
E07C
403C
ENDCHAR
STARTCHAR S
ENCODING 83
SWIDTH 472 0
DWIDTH 18 0
BBX 14 25 2 1
BITMAP
7FFC
FFFC
7FF0
E000
E000
E000
E000
E000
E000
E000
E000
DFE0
3FF0
3FF4
000C
001C
001C
001C
001C
001C
001C
001C
3FFC
FFEC
7FFC
ENDCHAR
STARTCHAR T
ENCODING 84
SWIDTH 471 0
DWIDTH 18 0
BBX 14 25 2 1
BITMAP
7FFC
FFFC
3FF0
0000
0700
0700
0700
0700
0700
0700
0700
0300
0000
0000
0300
0700
0700
0700
0700
0700
0700
0700
0700
0300
0300
ENDCHAR
STARTCHAR U
ENCODING 85
SWIDTH 472 0
DWIDTH 18 0
BBX 14 25 2 0
BITMAP
400C
C00C
E01C
E01C
E01C
E01C
E01C
E01C
E01C
E01C
E00C
C004
8004
C00C
E00C
E01C
E01C
E01C
E01C
E01C
E01C
C01C
7FEC
FFEC
3FE0
ENDCHAR
STARTCHAR V
ENCODING 86
SWIDTH 472 0
DWIDTH 18 0
BBX 14 24 2 1
BITMAP
400C
C00C
E01C
E01C
E01C
E01C
E01C
E01C
E01C
E01C
E00C
C004
0000
8004
C00C
E01C
703C
7838
3870
1CE0
0EE0
0FC0
0780
0300
ENDCHAR
STARTCHAR W
ENCODING 87
SWIDTH 472 0
DWIDTH 18 0
BBX 15 25 2 0
BITMAP
4004
C00E
E00E
E00E
E00E
E00E
E00E
E00E
E00E
E00E
E00E
C006
8100
C386
E38E
E38E
E38E
E38E
E38E
E38E
E38E
C30E
7FFE
FFFC
7FF0
ENDCHAR
STARTCHAR X
ENCODING 88
SWIDTH 472 0
DWIDTH 18 0
BBX 15 25 1 0
BITMAP
600C
E01E
701C
703C
3838
3878
1C70
1CF0
0EE0
0EE0
06C0
06C0
0680
06C0
0EC0
0EE0
1EE0
1C70
3C70
3838
7838
701C
F01C
E00E
2008
ENDCHAR
STARTCHAR Y
ENCODING 89
SWIDTH 472 0
DWIDTH 18 0
BBX 14 25 2 0
BITMAP
000C
800C
E01C
E01C
E01C
E01C
E01C
E01C
E01C
E01C
C00C
9FF4
3FF4
1FEC
000C
001C
001C
001C
001C
001C
001C
001C
7FEC
FFEC
7FE0
ENDCHAR
STARTCHAR Z
ENCODING 90
SWIDTH 472 0
DWIDTH 18 0
BBX 14 25 2 1
BITMAP
7FF8
FFDC
3FFC
0038
0078
0070
0070
00E0
00E0
01C0
01C0
0180
0000
0600
0600
0E00
0E00
1C00
3C00
3800
7800
7000
F7F0
EFF0
EFF8
ENDCHAR
STARTCHAR bracketleft
ENCODING 91
SWIDTH 281 0
DWIDTH 11 0
BBX 7 25 1 1
BITMAP
7E
7E
7C
E0
E0
E0
E0
E0
E0
E0
E0
C0
00
80
C0
E0
E0
E0
E0
E0
E0
E0
78
7C
7E
ENDCHAR
STARTCHAR backslash
ENCODING 92
SWIDTH 470 0
DWIDTH 18 0
BBX 14 25 2 0
BITMAP
E000
E000
F000
7000
7800
3800
3C00
1C00
1C00
0C00
0C00
0400
0080
0180
01C0
01C0
00E0
00E0
00F0
0070
0078
0038
003C
001C
0018
ENDCHAR
STARTCHAR bracketright
ENCODING 93
SWIDTH 281 0
DWIDTH 11 0
BBX 7 25 1 0
BITMAP
FE
76
3E
0E
0E
0E
0E
0E
0E
0E
06
02
02
02
06
0E
0E
0E
0E
0E
0E
0E
76
F6
78
ENDCHAR
STARTCHAR asciicircum
ENCODING 94
SWIDTH 471 0
DWIDTH 18 0
BBX 15 9 1 16
BITMAP
0100
0280
06E0
0EF0
1C78
783C
F01E
E00E
4004
ENDCHAR
STARTCHAR underscore
ENCODING 95
SWIDTH 471 0
DWIDTH 18 0
BBX 14 3 2 0
BITMAP
7FF8
FFFC
7FFC
ENDCHAR
STARTCHAR grave
ENCODING 96
SWIDTH 254 0
DWIDTH 10 0
BBX 6 6 2 20
BITMAP
C0
E0
70
38
1C
0C
ENDCHAR
STARTCHAR a
ENCODING 97
SWIDTH 472 0
DWIDTH 18 0
BBX 14 25 2 1
BITMAP
7FF8
FFEC
7FEC
E01C
E01C
E01C
E01C
E01C
E01C
E01C
E00C
DFE4
3FF0
BFF4
C00C
E01C
E01C
E01C
E01C
E01C
E01C
E01C
E01C
E00C
400C
ENDCHAR
STARTCHAR b
ENCODING 98
SWIDTH 472 0
DWIDTH 18 0
BBX 14 25 2 1
BITMAP
FFF0
FFF0
7FF8
E01C
E01C
E01C
E01C
E01C
E01C
E01C
E00C
DFE4
3FF0
BFF4
C00C
E01C
E01C
E01C
E01C
E01C
E01C
E01C
7FF8
FFF0
FFF0
ENDCHAR
STARTCHAR c
ENCODING 99
SWIDTH 436 0
DWIDTH 17 0
BBX 13 25 1 1
BITMAP
7FF8
7FF8
7FF8
E000
E000
E000
E000
E000
E000
E000
E000
C000
0000
8000
C000
E000
E000
E000
E000
E000
E000
E000
7FF0
FFF8
7FF8
ENDCHAR
STARTCHAR d
ENCODING 100
SWIDTH 472 0
DWIDTH 18 0
BBX 14 25 2 1
BITMAP
FFF0
FFF0
7FF8
E01C
E01C
E01C
E01C
E01C
E01C
E01C
E00C
C004
0000
8004
C00C
E01C
E01C
E01C
E01C
E01C
E01C
E01C
7FF8
FFF0
FFF0
ENDCHAR
STARTCHAR e
ENCODING 101
SWIDTH 436 0
DWIDTH 17 0
BBX 13 25 1 1
BITMAP
7FF8
7FF8
7FF8
E000
E000
E000
E000
E000
E000
E000
E000
DFF0
3FF8
BFF8
C000
E000
E000
E000
E000
E000
E000
E000
7FF0
FFF8
7FF8
ENDCHAR
STARTCHAR f
ENCODING 102
SWIDTH 436 0
DWIDTH 17 0
BBX 13 25 1 1
BITMAP
7FF8
7FF8
7FF8
E000
E000
E000
E000
E000
E000
E000
E000
DFF0
3FF8
BFF8
C000
E000
E000
E000
E000
E000
E000
E000
E000
E000
4000
ENDCHAR
STARTCHAR g
ENCODING 103
SWIDTH 472 0
DWIDTH 18 0
BBX 14 25 2 1
BITMAP
7FF8
FFF0
7FF0
E000
E000
E000
E000
E000
E000
E000
E000
C0E0
01F0
81F4
C00C
E01C
E01C
E01C
E01C
E01C
E01C
E01C
7FFC
FFEC
7FFC
ENDCHAR
STARTCHAR h
ENCODING 104
SWIDTH 472 0
DWIDTH 18 0
BBX 14 25 2 0
BITMAP
400C
C00C
E01C
E01C
E01C
E01C
E01C
E01C
E01C
E01C
E00C
DFF4
BFF4
DFEC
E00C
E01C
E01C
E01C
E01C
E01C
E01C
E01C
E01C
C00C
4000
ENDCHAR
STARTCHAR i
ENCODING 105
SWIDTH 163 0
DWIDTH 7 0
BBX 3 24 1 1
BITMAP
40
E0
E0
E0
E0
E0
E0
E0
E0
E0
E0
60
20
60
E0
E0
E0
E0
E0
E0
E0
E0
E0
40
ENDCHAR
STARTCHAR j
ENCODING 106
SWIDTH 472 0
DWIDTH 18 0
BBX 14 25 2 0
BITMAP
000C
000C
001C
001C
001C
001C
001C
001C
001C
001C
000C
0004
0004
C00C
E00C
E01C
E01C
E01C
E01C
E01C
E01C
C01C
7FEC
FFEC
3FE0
ENDCHAR
STARTCHAR k
ENCODING 107
SWIDTH 472 0
DWIDTH 18 0
BBX 14 25 2 0
BITMAP
4018
C03C
E078
E0F0
E1E0
E3C0
E780
EF00
FE00
FC00
F800
DFF0
BFF0
DFEC
E00C
E01C
E01C
E01C
E01C
E01C
E01C
E01C
E01C
C00C
4000
ENDCHAR
STARTCHAR l
ENCODING 108
SWIDTH 472 0
DWIDTH 18 0
BBX 14 25 1 0
BITMAP
4000
C000
E000
E000
E000
E000
E000
E000
E000
E000
E000
C000
8000
C000
E000
E000
E000
E000
E000
E000
E000
E000
FFFC
DFFC
1FFC
ENDCHAR
STARTCHAR m
ENCODING 109
SWIDTH 472 0
DWIDTH 18 0
BBX 15 25 2 1
BITMAP
7FF4
FFFE
7FEE
E00E
E38E
E38E
E38E
E38E
E38E
E38E
E38E
C386
0100
8006
C00E
E00E
E00E
E00E
E00E
E00E
E00E
E00E
E00E
E00E
4004
ENDCHAR
STARTCHAR n
ENCODING 110
SWIDTH 472 0
DWIDTH 18 0
BBX 14 25 2 0
BITMAP
400C
C00C
E01C
FC1C
FE1C
EF1C
E79C
E3DC
E1FC
E0FC
E00C
C004
8004
C00C
E00C
E01C
E01C
E01C
E01C
E01C
E01C
E01C
E01C
C00C
4000
ENDCHAR
STARTCHAR o
ENCODING 111
SWIDTH 472 0
DWIDTH 18 0
BBX 14 25 2 1
BITMAP
1FE0
3FF0
7FE8
E01C
E01C
E01C
E01C
E01C
E01C
E01C
E00C
C004
0000
8004
C00C
E01C
E01C
E01C
E01C
E01C
E01C
E01C
7FF8
3FF0
1FE0
ENDCHAR
STARTCHAR p
ENCODING 112
SWIDTH 472 0
DWIDTH 18 0
BBX 14 25 2 1
BITMAP
FFF0
FFF0
7FF8
E01C
E01C
E01C
E01C
E01C
E01C
E01C
E00C
DFE4
3FF0
BFF0
C000
E000
E000
E000
E000
E000
E000
E000
E000
E000
4000
ENDCHAR
STARTCHAR q
ENCODING 113
SWIDTH 481 0
DWIDTH 19 0
BBX 15 26 2 0
BITMAP
7FF8
FFEC
7FEC
E01C
E01C
E01C
E01C
E01C
E01C
E01C
E00C
C004
0000
8004
C00C
E01C
E01C
E01C
E01C
E0DC
E0E4
E0F0
7FF8
FFFC
7FFE
0006
ENDCHAR
STARTCHAR r
ENCODING 114
SWIDTH 472 0
DWIDTH 18 0
BBX 14 25 2 1
BITMAP
7FF8
FFEC
7FEC
E01C
E01C
E01C
E01C
E01C
E01C
E01C
E00C
DFE4
3FF0
BFF0
D800
FC00
FE00
FF00
EF80
E7C0
E3E0
E1F0
E0F8
E07C
403C
ENDCHAR
STARTCHAR s
ENCODING 115
SWIDTH 472 0
DWIDTH 18 0
BBX 14 25 2 1
BITMAP
7FFC
FFFC
7FF0
E000
E000
E000
E000
E000
E000
E000
E000
DFE0
3FF0
3FF4
000C
001C
001C
001C
001C
001C
001C
001C
3FFC
FFEC
7FFC
ENDCHAR
STARTCHAR t
ENCODING 116
SWIDTH 471 0
DWIDTH 18 0
BBX 14 25 2 1
BITMAP
7FFC
FFFC
3FF0
0000
0700
0700
0700
0700
0700
0700
0700
0300
0000
0000
0300
0700
0700
0700
0700
0700
0700
0700
0700
0300
0300
ENDCHAR
STARTCHAR u
ENCODING 117
SWIDTH 472 0
DWIDTH 18 0
BBX 14 25 2 0
BITMAP
400C
C00C
E01C
E01C
E01C
E01C
E01C
E01C
E01C
E01C
E00C
C004
8004
C00C
E00C
E01C
E01C
E01C
E01C
E01C
E01C
C01C
7FEC
FFEC
3FE0
ENDCHAR
STARTCHAR v
ENCODING 118
SWIDTH 472 0
DWIDTH 18 0
BBX 14 24 2 1
BITMAP
400C
C00C
E01C
E01C
E01C
E01C
E01C
E01C
E01C
E01C
E00C
C004
0000
8004
C00C
E01C
703C
7838
3870
1CE0
0EE0
0FC0
0780
0300
ENDCHAR
STARTCHAR w
ENCODING 119
SWIDTH 472 0
DWIDTH 18 0
BBX 15 25 2 0
BITMAP
4004
C00E
E00E
E00E
E00E
E00E
E00E
E00E
E00E
E00E
E00E
C006
8100
C386
E38E
E38E
E38E
E38E
E38E
E38E
E38E
C30E
7FFE
FFFC
7FF0
ENDCHAR
STARTCHAR x
ENCODING 120
SWIDTH 472 0
DWIDTH 18 0
BBX 15 25 1 0
BITMAP
600C
E01E
701C
703C
3838
3878
1C70
1CF0
0EE0
0EE0
06C0
06C0
0680
06C0
0EC0
0EE0
1EE0
1C70
3C70
3838
7838
701C
F01C
E00E
2008
ENDCHAR
STARTCHAR y
ENCODING 121
SWIDTH 472 0
DWIDTH 18 0
BBX 14 25 2 0
BITMAP
000C
800C
E01C
E01C
E01C
E01C
E01C
E01C
E01C
E01C
C00C
9FF4
3FF4
1FEC
000C
001C
001C
001C
001C
001C
001C
001C
7FEC
FFEC
7FE0
ENDCHAR
STARTCHAR z
ENCODING 122
SWIDTH 472 0
DWIDTH 18 0
BBX 14 25 2 1
BITMAP
7FF8
FFDC
3FFC
0038
0078
0070
0070
00E0
00E0
01C0
01C0
0180
0000
0600
0600
0E00
0E00
1C00
3C00
3800
7800
7000
F7F0
EFF0
EFF8
ENDCHAR
STARTCHAR braceleft
ENCODING 123
SWIDTH 390 0
DWIDTH 15 0
BBX 11 25 2 1
BITMAP
07E0
0FE0
07C0
0C00
0E00
0E00
0E00
0E00
0E00
0E00
0E00
7600
F800
FA00
0600
0E00
0E00
0E00
0E00
0E00
0E00
0E00
0780
0FC0
07E0
ENDCHAR
STARTCHAR bar
ENCODING 124
SWIDTH 163 0
DWIDTH 7 0
BBX 3 25 1 0
BITMAP
40
E0
E0
E0
E0
E0
E0
E0
E0
E0
E0
E0
E0
E0
E0
E0
E0
E0
E0
E0
E0
E0
E0
60
40
ENDCHAR
STARTCHAR braceright
ENCODING 125
SWIDTH 390 0
DWIDTH 15 0
BBX 11 25 1 1
BITMAP
FE00
7E00
3C00
0600
0E00
0E00
0E00
0E00
0E00
0E00
0E00
04C0
01E0
05E0
0E00
0E00
0E00
0E00
0E00
0E00
0E00
0600
3C00
7E00
FE00
ENDCHAR
STARTCHAR asciitilde
ENCODING 126
SWIDTH 490 0
DWIDTH 19 0
BBX 15 7 2 12
BITMAP
1C00
1C00
7F8C
E79E
638C
0070
0070
ENDCHAR
STARTCHAR copyright
ENCODING 169
SWIDTH 527 0
DWIDTH 21 0
BBX 17 25 1 1
BITMAP
7FFD00
FFFF80
7FFB80
E00380
E00380
E00380
E7F380
E7F380
E1F380
EE0380
EE0380
EE0380
EE0380
EE0380
EE0380
EE0380
EE0380
EFF380
E7FB80
E5E380
E00380
E00380
7FFB80
FFFF80
7FFD00
ENDCHAR
STARTCHAR endash
ENCODING 8211
SWIDTH 490 0
DWIDTH 19 0
BBX 15 3 2 11
BITMAP
7FFC
FFFE
7FFC
ENDCHAR
STARTCHAR emdash
ENCODING 8212
SWIDTH 527 0
DWIDTH 21 0
BBX 16 3 2 11
BITMAP
7FFF
FFFF
7FFF
ENDCHAR
STARTCHAR quoteleft
ENCODING 8216
SWIDTH 163 0
DWIDTH 7 0
BBX 3 7 1 18
BITMAP
40
E0
E0
E0
E0
E0
E0
ENDCHAR
STARTCHAR quoteright
ENCODING 8217
SWIDTH 163 0
DWIDTH 7 0
BBX 3 7 1 18
BITMAP
E0
E0
E0
E0
E0
E0
40
ENDCHAR
STARTCHAR quotedblleft
ENCODING 8220
SWIDTH 309 0
DWIDTH 12 0
BBX 8 7 2 18
BITMAP
43
E7
E7
E7
E7
E7
E7
ENDCHAR
STARTCHAR quotedblright
ENCODING 8221
SWIDTH 310 0
DWIDTH 12 0
BBX 8 7 2 18
BITMAP
E7
E7
E7
E7
E7
E7
43
ENDCHAR
STARTCHAR bullet
ENCODING 8226
SWIDTH 354 0
DWIDTH 14 0
BBX 10 10 1 8
BITMAP
1E00
3F80
7FC0
FFC0
FFC0
FFC0
FFC0
7FC0
7F80
3F00
ENDCHAR
STARTCHAR perthousand
ENCODING 8240
SWIDTH 536 0
DWIDTH 21 0
BBX 17 25 2 0
BITMAP
7C0000
EC0600
BC0F00
FC1E00
FC3C00
EC7800
DCF000
DCE000
03C000
070000
0F0000
1E0000
3C0000
780000
F00000
E00000
0D1D00
1DBD80
1F9F80
3BBB80
3FBF80
39B980
3E3E00
1F9780
071700
ENDCHAR
STARTCHAR .notdef
ENCODING 8242
SWIDTH 527 0
DWIDTH 21 0
BBX 17 25 2 1
BITMAP
7FFD00
FFFF80
7FFB80
E00380
E00380
E00380
E00380
E00380
E00380
E00380
E00380
E00380
E00380
E00380
E00380
E00380
E00380
E00380
E00380
E00380
E00380
E00380
7FFB80
FFFF80
7FFD00
ENDCHAR
STARTCHAR NULL
ENCODING 8243
SWIDTH 454 0
DWIDTH 18 0
BBX 1 1 0 0
BITMAP
00
ENDCHAR
ENDFONT
